<svg width="111" height="128" viewBox="0 0 111 128" fill="none" xmlns="http://www.w3.org/2000/svg">
<path fill-rule="evenodd" clip-rule="evenodd" d="M15.6168 39.4317C15.6375 39.3618 15.662 39.2919 15.6907 39.2225C17.2413 35.4616 19.1933 31.9042 21.3936 28.5954C22.155 27.4505 23.4307 26.7538 24.8057 26.7538H25.2237C35.5319 12.2961 50.2589 3.03955 55.3381 3.03955C60.4173 3.03955 75.1444 12.2961 85.4525 26.7538H85.8919C87.2669 26.7538 88.5426 27.4505 89.304 28.5954C91.5043 31.9044 93.4563 35.4616 95.0069 39.2225C95.2018 39.6953 95.2081 40.1847 95.0711 40.6208C94.8628 41.3273 94.2802 41.9006 93.5131 42.0501C94.581 45.1119 95.3719 48.2953 95.8088 51.5779C95.8901 52.1893 95.8617 52.7875 95.7396 53.3535C95.9049 53.886 96.0599 54.4231 96.2042 54.9645C100.012 53.9159 104.216 54.0473 106.27 56.4853C109.543 60.3718 106.111 68.648 102.224 71.9213C100.632 73.2621 98.7183 73.9703 96.7886 74.072C96.626 74.8789 96.4402 75.6773 96.2319 76.4667C92.5023 104.283 63.3586 124.961 55.7672 124.961C48.1717 124.961 19.0011 104.261 15.2966 76.4223C15.2827 76.3182 15.272 76.2144 15.2645 76.1111C15.0931 75.4378 14.9382 74.758 14.8 74.0721C12.5503 74.1901 10.2524 73.487 8.39333 71.9213C4.50685 68.648 1.07444 60.3718 4.34769 56.4853C6.56425 53.8535 11.2874 53.9095 15.3127 55.2364C15.3568 55.0665 15.4019 54.897 15.4481 54.7279C14.9441 53.8047 14.7163 52.7141 14.8675 51.5779C15.3043 48.2953 16.0952 45.1119 17.1631 42.05C15.9906 41.8215 15.2494 40.6026 15.6168 39.4317Z" fill="black"/>
<path fill-rule="evenodd" clip-rule="evenodd" d="M12.8807 38.0639L12.8808 38.0638C14.516 34.0978 16.5662 30.3656 18.8627 26.9122L18.8628 26.9122C19.9544 25.2707 21.6696 24.1493 23.602 23.8169C28.7904 16.8288 34.9126 11.0913 40.4413 7.02619C43.3596 4.88049 46.1574 3.16748 48.6137 1.9767C50.9594 0.839499 53.3499 0 55.3382 0C57.3265 0 59.717 0.8395 62.0627 1.9767C64.5189 3.16748 67.3168 4.88049 70.235 7.02619C75.7626 11.0905 81.8836 16.8265 87.0712 23.8127C89.0137 24.1398 90.7387 25.2637 91.8349 26.9122L91.835 26.9123C94.1314 30.3659 96.1817 34.0977 97.8169 38.0638L97.817 38.0639C98.2893 39.2096 98.3129 40.4224 97.9788 41.5061C97.7932 42.1233 97.4896 42.7034 97.087 43.2109C97.8659 45.7856 98.4581 48.4449 98.8217 51.1769C98.831 51.247 98.8394 51.317 98.847 51.387C99.9847 51.2757 101.132 51.2692 102.245 51.398C104.494 51.6585 106.901 52.5169 108.595 54.5272C111.266 57.6988 110.858 62.0884 109.831 65.3473C108.757 68.7523 106.646 72.1706 104.182 74.246C102.716 75.4804 101.042 76.3129 99.297 76.7528C99.2713 76.8547 99.2453 76.9566 99.2189 77.0582C97.1849 91.79 88.5219 104.425 79.5902 113.3C75.0846 117.778 70.4307 121.38 66.3605 123.884C64.3269 125.135 62.3983 126.137 60.6732 126.835C59.0115 127.508 57.2968 128 55.7672 128C54.237 128 52.5212 127.507 50.8585 126.834C49.1323 126.135 47.2025 125.132 45.1675 123.88C41.0946 121.374 36.4376 117.768 31.9299 113.286C22.9833 104.391 14.3092 91.7247 12.3018 76.9577C10.2081 76.6093 8.17554 75.7115 6.43542 74.246L8.36576 71.954L6.43542 74.246C3.97123 72.1706 1.86078 68.7523 0.786953 65.3473C-0.240803 62.0884 -0.648214 57.6988 2.02298 54.5272C3.84998 52.3579 6.50389 51.5294 8.92154 51.3455C9.87689 51.2729 10.8547 51.2944 11.8288 51.3927C11.8364 51.3209 11.8451 51.2489 11.8547 51.1769C12.2182 48.4452 12.8103 45.7861 13.5891 43.2116C12.5886 41.9503 12.1907 40.2277 12.7092 38.5464C12.7581 38.3836 12.8153 38.2225 12.8807 38.0639ZM16.6226 41.8614C16.7891 41.948 16.9703 42.0123 17.1632 42.0499C16.8294 43.0069 16.5227 43.9758 16.2454 44.9558C15.6355 47.1114 15.1678 49.3212 14.8675 51.5778C14.8518 51.6961 14.8401 51.8139 14.8325 51.9311C14.7668 52.9393 14.9967 53.9007 15.4482 54.7278C15.402 54.8969 15.3569 55.0664 15.3128 55.2363C15.1455 55.1812 14.977 55.1282 14.8075 55.0775C14.2028 54.8968 13.5857 54.7453 12.9667 54.6277C12.6736 54.572 12.3801 54.5239 12.0872 54.4839C9.00046 54.062 5.98789 54.5378 4.34775 56.4852C1.07449 60.3717 4.5069 68.6479 8.39338 71.9212C10.2524 73.4869 12.5503 74.19 14.8 74.072C14.9382 74.7579 15.0932 75.4377 15.2645 76.1109C15.2721 76.2142 15.2827 76.318 15.2966 76.4222C19.0011 104.261 48.1718 124.961 55.7673 124.961C63.3587 124.961 92.5024 104.282 96.232 76.4665C96.4403 75.6772 96.626 74.8788 96.7886 74.0719C98.7184 73.9702 100.632 73.262 102.224 71.9212C106.111 68.6479 109.543 60.3717 106.27 56.4852C104.269 54.11 100.227 53.924 96.4992 54.8857C96.4007 54.9111 96.3024 54.9374 96.2043 54.9644C96.1464 54.7471 96.0867 54.5305 96.0254 54.3146C95.9339 53.9926 95.8386 53.6722 95.7397 53.3534C95.7428 53.339 95.7458 53.3246 95.7488 53.3102C95.8414 52.8622 95.8754 52.3945 95.8429 51.9164C95.8352 51.804 95.8239 51.6911 95.8088 51.5778C95.5085 49.3212 95.0409 47.1115 94.431 44.9559C94.1537 43.9758 93.847 43.007 93.5132 42.05C93.7062 42.0124 93.8875 41.9479 94.0541 41.8613C94.5497 41.6036 94.9152 41.1494 95.0711 40.6207C95.2081 40.1845 95.2019 39.6952 95.007 39.2223C93.4563 35.4615 91.5044 31.9043 89.304 28.5953C88.5426 27.4504 87.2669 26.7537 85.892 26.7537H85.4526C75.1444 12.296 60.4173 3.03944 55.3382 3.03944C50.259 3.03944 35.5319 12.296 25.2238 26.7537H24.8057C23.4308 26.7537 22.1551 27.4504 21.3936 28.5953C19.1933 31.9041 17.2413 35.4615 15.6907 39.2223C15.6621 39.2918 15.6375 39.3616 15.6169 39.4316C15.3099 40.4099 15.7768 41.4217 16.6226 41.8614Z" fill="white"/>
<path d="M89.2602 70.811C92.5335 74.6975 98.3376 75.1946 102.224 71.9213C106.111 68.6481 109.543 60.3718 106.27 56.4853C102.996 52.5988 94.257 54.5739 90.3706 57.8471C86.4841 61.1204 85.987 66.9245 89.2602 70.811Z" fill="black"/>
<path d="M21.3572 70.811C18.0839 74.6975 12.2798 75.1946 8.39333 71.9213C4.50685 68.6481 1.07444 60.3718 4.34769 56.4853C7.62095 52.5988 16.3604 54.5739 20.2468 57.8471C24.1333 61.1204 24.6304 66.9245 21.3572 70.811Z" fill="black"/>
<path fill-rule="evenodd" clip-rule="evenodd" d="M92.3808 68.1828C94.2025 70.3458 97.4328 70.6225 99.5959 68.8007C100.84 67.7531 102.293 65.5783 103.041 63.2062C103.851 60.638 103.397 59.4079 103.149 59.1135C102.901 58.8191 101.766 58.1629 99.0976 58.5243C96.6329 58.8581 94.2427 59.92 92.9988 60.9677C90.8357 62.7894 90.5591 66.0197 92.3808 68.1828ZM11.0215 68.8007C13.1846 70.6225 16.4149 70.3458 18.2366 68.1828C20.0583 66.0197 19.7817 62.7894 17.6186 60.9677C16.3747 59.92 13.9845 58.8581 11.5198 58.5243C8.85125 58.1629 7.71619 58.8191 7.46827 59.1135C7.22035 59.4079 6.76667 60.638 7.57659 63.2062C8.32467 65.5783 9.77757 67.7531 11.0215 68.8007ZM8.39333 71.9213C12.2798 75.1946 18.0839 74.6975 21.3572 70.811C24.6304 66.9245 24.1333 61.1204 20.2468 57.8471C16.3604 54.5739 7.62095 52.5988 4.34769 56.4853C1.07444 60.3718 4.50685 68.6481 8.39333 71.9213ZM102.224 71.9213C98.3376 75.1946 92.5335 74.6975 89.2602 70.811C85.987 66.9245 86.4841 61.1204 90.3706 57.8471C94.257 54.5739 102.996 52.5988 106.27 56.4853C109.543 60.3718 106.111 68.6481 102.224 71.9213Z" fill="black"/>
<path d="M96.232 76.4667C97.1331 73.0518 97.6132 69.4658 97.6132 65.7678C97.6132 42.6719 78.8902 23.949 55.7944 23.949C32.6985 23.949 13.9756 42.6719 13.9756 65.7678C13.9756 69.3377 14.4229 72.8031 15.2646 76.1111C15.2721 76.2144 15.2828 76.3182 15.2967 76.4224C19.0012 104.261 48.1718 124.961 55.7673 124.961C63.3587 124.961 92.5024 104.283 96.232 76.4667Z" fill="white"/>
<path fill-rule="evenodd" clip-rule="evenodd" d="M92.2222 75.672L92.2872 75.4257C93.0994 72.3476 93.5333 69.1114 93.5333 65.7678C93.5333 44.9251 76.637 28.0289 55.7944 28.0289C34.9517 28.0289 18.0555 44.9251 18.0555 65.7678C18.0555 68.9956 18.4598 72.1232 19.2185 75.1051L19.3072 75.454L19.3335 75.813C19.3352 75.836 19.3376 75.8598 19.3409 75.8842C21.0314 88.5879 28.6047 99.9412 36.9494 108.238C41.0937 112.358 45.3225 115.616 48.8985 117.817C50.6884 118.918 52.2603 119.721 53.5311 120.235C54.8871 120.785 55.5975 120.881 55.7673 120.881C55.9369 120.881 56.6466 120.785 58.0015 120.236C59.2713 119.722 60.8419 118.92 62.6305 117.82C66.2038 115.622 70.4297 112.367 74.572 108.251C82.9127 99.9623 90.4863 88.6188 92.1883 75.9245L92.2222 75.672ZM15.2646 76.1111C14.4229 72.8031 13.9756 69.3377 13.9756 65.7678C13.9756 42.6719 32.6985 23.949 55.7944 23.949C78.8902 23.949 97.6132 42.6719 97.6132 65.7678C97.6132 69.4658 97.1331 73.0518 96.232 76.4667C92.5024 104.283 63.3587 124.961 55.7673 124.961C48.1718 124.961 19.0012 104.261 15.2967 76.4224C15.2828 76.3182 15.2721 76.2144 15.2646 76.1111Z" fill="black"/>
<path d="M22.3906 57.608C22.3906 53.1015 26.0439 49.4482 30.5504 49.4482H80.019C84.5255 49.4482 88.1787 53.1015 88.1787 57.608V74.9475C88.1787 79.454 84.5255 83.1073 80.019 83.1073H30.5504C26.0439 83.1073 22.3906 79.454 22.3906 74.9475V57.608Z" fill="black"/>
<path fill-rule="evenodd" clip-rule="evenodd" d="M30.5504 53.5281C28.2971 53.5281 26.4705 55.3547 26.4705 57.608V74.9475C26.4705 77.2008 28.2971 79.0274 30.5504 79.0274H80.019C82.2722 79.0274 84.0988 77.2008 84.0988 74.9475V57.608C84.0988 55.3547 82.2722 53.5281 80.019 53.5281H30.5504ZM30.5504 49.4482C26.0439 49.4482 22.3906 53.1015 22.3906 57.608V74.9475C22.3906 79.454 26.0439 83.1073 30.5504 83.1073H80.019C84.5255 83.1073 88.1787 79.454 88.1787 74.9475V57.608C88.1787 53.1015 84.5255 49.4482 80.019 49.4482H30.5504Z" fill="black"/>
<path d="M39.4584 75.6518C37.3554 75.6518 35.6504 73.9468 35.6504 71.8437V65.7509C35.6504 63.6479 37.3554 61.9429 39.4584 61.9429C41.5615 61.9429 43.2664 63.6479 43.2664 65.7509V71.8437C43.2664 73.9468 41.5615 75.6518 39.4584 75.6518Z" fill="white"/>
<path d="M71.3325 75.6518C69.2289 75.6518 67.5245 73.9468 67.5245 71.8437V65.7509C67.5245 63.6479 69.2289 61.9429 71.3325 61.9429C73.436 61.9429 75.1405 63.6479 75.1405 65.7509V71.8437C75.1405 73.9468 73.436 75.6518 71.3325 75.6518Z" fill="white"/>
<path fill-rule="evenodd" clip-rule="evenodd" d="M35.6504 71.8437C35.6504 73.9468 37.3554 75.6518 39.4584 75.6518C41.5615 75.6518 43.2664 73.9468 43.2664 71.8437V65.7509C43.2664 63.6479 41.5615 61.9429 39.4584 61.9429C37.3554 61.9429 35.6504 63.6479 35.6504 65.7509V71.8437ZM67.5245 71.8437C67.5245 73.9468 69.2289 75.6518 71.3325 75.6518C73.436 75.6518 75.1405 73.9468 75.1405 71.8437V65.7509C75.1405 63.6479 73.436 61.9429 71.3325 61.9429C69.2289 61.9429 67.5245 63.6479 67.5245 65.7509V71.8437Z" fill="white"/>
<path d="M55.1571 90.646C76.3041 102.731 83.3338 90.646 83.3338 90.646C71.7055 88.856 83.3338 74.4375 55.1571 74.4375C28.8929 74.4375 38.6088 88.856 26.9805 90.646C26.9805 90.646 34.0101 102.731 55.1571 90.646Z" fill="white"/>
<path fill-rule="evenodd" clip-rule="evenodd" d="M55.1571 85.947L57.1814 87.1037C67.0701 92.7547 72.8784 92.3392 75.851 91.3189C75.8618 91.3152 75.8724 91.3115 75.8831 91.3078C75.3373 90.7234 74.889 90.1081 74.5118 89.4943C73.8214 88.3708 73.333 87.1823 72.9622 86.277C72.944 86.2323 72.9259 86.1882 72.9081 86.1446C72.5289 85.2181 72.2363 84.5033 71.8617 83.8099C71.1877 82.5626 70.2563 81.3962 68.1318 80.4364C65.8221 79.3929 61.919 78.5174 55.1571 78.5174C48.9138 78.5174 45.2545 79.3824 43.0312 80.4172C40.9521 81.3849 39.9029 82.6024 39.0745 83.9767C38.6637 84.6582 38.3255 85.3455 37.9114 86.187C37.8555 86.3007 37.7982 86.4172 37.7391 86.5368C37.2802 87.4665 36.6987 88.6227 35.9257 89.7151C35.5149 90.2955 35.0606 90.8431 34.5533 91.3493C37.5525 92.3469 43.3431 92.6982 53.1329 87.1037L55.1571 85.947ZM30.4924 93.9396C28.0173 92.4284 26.9805 90.646 26.9805 90.646C28.7073 90.3802 29.9634 89.8359 30.9366 89.1016C32.5201 87.9069 33.3544 86.2093 34.2482 84.3905C36.5042 79.8001 39.1397 74.4375 55.1571 74.4375C72.5301 74.4375 74.7707 79.9188 76.6605 84.5418C77.3702 86.278 78.0304 87.8931 79.4241 89.0514C80.3382 89.811 81.5678 90.3742 83.3338 90.646C83.3338 90.646 82.2995 92.4241 79.8309 93.9341C75.8638 96.3607 68.1926 98.0952 55.1571 90.646C42.1315 98.0896 34.4621 96.3633 30.4924 93.9396Z" fill="black"/>
<path d="M55.338 3.03955C47.7425 3.03955 18.5719 23.7396 14.8674 51.5779C14.4586 54.6495 16.8201 57.3876 19.9188 57.3876H90.7572C93.8559 57.3876 96.2174 54.6495 95.8087 51.5779C92.1041 23.7396 62.9335 3.03955 55.338 3.03955Z" fill="white"/>
<path fill-rule="evenodd" clip-rule="evenodd" d="M36.5201 19.7626C28.1755 28.059 20.6021 39.4124 18.9116 52.1161C18.823 52.7819 19.3271 53.3078 19.9188 53.3078H90.7572C91.349 53.3078 91.853 52.7819 91.7644 52.1161C90.0739 39.4124 82.5006 28.059 74.1559 19.7626C70.0116 15.6423 65.7828 12.384 62.2068 10.1837C60.4169 9.0823 58.845 8.27958 57.5742 7.76488C56.2182 7.21567 55.5078 7.11943 55.338 7.11943C55.1682 7.11943 54.4578 7.21567 53.1018 7.76488C51.831 8.27958 50.2591 9.0823 48.4692 10.1837C44.8932 12.384 40.6644 15.6423 36.5201 19.7626ZM14.8674 51.5779C18.5719 23.7396 47.7425 3.03955 55.338 3.03955C62.9335 3.03955 92.1041 23.7396 95.8087 51.5779C96.2174 54.6495 93.8559 57.3876 90.7572 57.3876H19.9188C16.8201 57.3876 14.4586 54.6495 14.8674 51.5779Z" fill="black"/>
<path d="M17.5618 42.0881H93.1153C94.5739 42.0881 95.5525 40.6056 94.9966 39.2572C93.446 35.4963 91.4941 31.9392 89.2937 28.6301C88.5323 27.4852 87.2566 26.7886 85.8817 26.7886H24.7954C23.4205 26.7886 22.1447 27.4852 21.3833 28.6301C19.183 31.9389 17.231 35.4963 15.6804 39.2572C15.1245 40.6056 16.1032 42.0881 17.5618 42.0881Z" fill="white"/>
<path fill-rule="evenodd" clip-rule="evenodd" d="M89.982 37.9733C88.7909 35.5018 87.4157 33.1231 85.9072 30.8545C85.8988 30.8418 85.8911 30.8359 85.8872 30.8335H24.8114C24.8075 30.8359 24.7998 30.8418 24.7914 30.8544M89.3045 28.5952C91.5048 31.9043 93.4568 35.4614 95.0074 39.2223C95.5633 40.5707 94.5846 42.0532 93.126 42.0532H17.5725C16.1139 42.0532 15.1353 40.5707 15.6912 39.2223C17.2418 35.4614 19.1937 31.904 21.3941 28.5952C22.1555 27.4503 23.4312 26.7537 24.8061 26.7537H85.8924C87.2673 26.7537 88.5431 27.4503 89.3045 28.5952ZM20.7165 37.9733C21.9076 35.5017 23.2829 33.1228 24.7914 30.8544L20.7165 37.9733ZM89.982 37.9733H20.7165H89.982Z" fill="black"/>
<path d="M85.9114 30.8337H24.7132L20.5059 38.356H90.3738L85.9114 30.8337Z" fill="white"/>
<path d="M62.9863 47.188H47.6868C44.8701 47.188 42.5869 44.9048 42.5869 42.0881V26.7886C42.5869 23.9719 44.8701 21.6887 47.6868 21.6887H62.9863C65.803 21.6887 68.0862 23.9719 68.0862 26.7886V42.0881C68.0862 44.9048 65.803 47.188 62.9863 47.188Z" fill="white"/>
<path fill-rule="evenodd" clip-rule="evenodd" d="M47.6868 43.1081H62.9863C63.5497 43.1081 64.0063 42.6515 64.0063 42.0881V26.7886C64.0063 26.2252 63.5497 25.7686 62.9863 25.7686H47.6868C47.1234 25.7686 46.6668 26.2252 46.6668 26.7886V42.0881C46.6668 42.6515 47.1234 43.1081 47.6868 43.1081ZM47.6868 47.188H62.9863C65.803 47.188 68.0862 44.9048 68.0862 42.0881V26.7886C68.0862 23.9719 65.803 21.6887 62.9863 21.6887H47.6868C44.8701 21.6887 42.5869 23.9719 42.5869 26.7886V42.0881C42.5869 44.9048 44.8701 47.188 47.6868 47.188Z" fill="black"/>
<path d="M50.2373 29.3386H60.437V39.5383H50.2373V29.3386Z" fill="black"/>
<path fill-rule="evenodd" clip-rule="evenodd" d="M56.3571 33.4185H54.3172V35.4584H56.3571V33.4185ZM50.2373 29.3386V39.5383H60.437V29.3386H50.2373Z" fill="black"/>
</svg>
